<?xml version="1.0" encoding="utf-8"?>
<!-- Generator: Adobe Illustrator 27.7.0, SVG Export Plug-In . SVG Version: 6.00 Build 0)  -->
<svg version="1.1" id="Layer_1" xmlns="http://www.w3.org/2000/svg" xmlns:xlink="http://www.w3.org/1999/xlink" x="0px" y="0px"
	 viewBox="0 0 1024 1024" style="enable-background:new 0 0 1024 1024;" xml:space="preserve">
<g>
	<path d="M867.8,679.7c1.1,0.5,2.3,0.8,3.5,0.9c25.8,2,54.3,4.6,77.4,16.6c2,1,1.9,1.3-0.3,0.8c-11.1-2.6-22.6-4.4-34.3-5.4
		c-11.5-1-33-1.8-64.5-2.3c-33.9-0.6-62.9-2.2-86.9-4.7c-13.1-1.4-47-5.3-52.6-18.8c-0.4-1-1.2-1.5-2.2-1.6
		c-14.1-0.8-26-5.9-35.4-15.4c-0.4-0.4-1.1-0.4-1.6,0c0,0,0,0,0,0C655,667.4,637,676,614.3,681.2c-26.5,6-54.8,10-85,11.8
		c-19.8,1.2-38.8,0.3-56.5-8.8c-2.2-1.1-4.2-2.8-6.5-3.8c-0.4-0.2-0.8-0.2-1.2,0c-20.4,9.9-40.3,10.1-59.7,0.7
		c-0.6-0.3-1.2,0-1.5,0.5c0,0,0,0.1,0,0.1c-2,4.9-4.3,9.7-7,14.4c-26.2,46.2-69.5,81.5-120.6,96.5c-23.1,6.8-50.3,4.4-73.3-1
		c-53.6-12.5-93.9-53.7-107.6-106.5c-4.1-15.6-6.3-32.5-6.7-50.6c-0.4-18.2-0.9-36.2-1.5-53.8c-0.9-28.9-6.2-63.4-23-86.5
		c-4.3-5.9-6.9-13.5-0.1-18.7c5.1-3.9,11.4-3,16.1,1.2c27.8,24.6,39.9,56.7,41.4,93.5c0.7,17,1,34.7,1,53.3
		c0,43.4,15.3,81.9,48.8,108.9c21.9,17.6,49.8,24.2,78.6,23.5c9.3-0.2,19-3,29.1-8.2c59.3-30.5,93.1-102.3,89.9-167.5
		c-0.9-18.6-3.2-37.7-6.3-56.1c-1.8-10.5-2.8-19.7-2.9-27.6c-1.3-57.7,28.6-110.9,75.4-143.1c23.8-16.4,53.6-25.6,82.5-20.9
		c8.7,1.4,16.8,3.3,24.3,5.6c47.6,14.7,90.8,37.4,136.1,61c5.5,2.8,11.5,5.7,18.2,8.7c22.6,10,43.8,11.4,65.4-2.5
		c30.1-19.3,41.8-59.7,38.6-93.5c-1.6-16.5-11.4-33.3-30.7-28.3c-19.3,5-36.6,17.9-53.4,28.6c-5.7,3.7-11.4,5.9-17,6.7
		c-5.6,0.8-12.4-1.1-18.2-1.6c-5.6-0.5-11-9.5-13.7-13.8c-6.6-10.6-9.8-25.4,0.5-34.9c5.4-5,10.8-9.9,16.2-14.8
		c12.1-10.9,22.5-22.4,31.3-34.4c2.2-3,3.9-6.6,3.5-10.5c-2-20.5,1.9-41.2,22.5-49.9c0.4-0.2,0.6-0.6,0.4-1c0-0.1-0.1-0.2-0.2-0.2
		c-11-10.7-21-21.8-30-33.2c-11.4-14.4-20.8-33.2-17.2-50.9c1.8-8.7,8.4-16.5,17.6-17.6c6.7-0.8,12.5,2.3,17.5,9.2
		c10.9,15.3,22.6,32.1,35.3,50.6c7.4,10.8,15.2,21,23.4,30.4c0.2,0.3,0.7,0.3,1,0.1c0.1-0.1,0.2-0.2,0.2-0.3
		c9.7-31.2,22.5-61.7,38.5-91.4c2.4-4.5,6.1-7.1,11-7.8c14.7-2.1,24.2,12.3,25.7,25.4c1,8.6-1,16.2-5.9,22.8
		c-14.6,19.7-26.5,41.1-35.5,64.1c-0.5,1.3-0.2,2.8,0.9,3.8c21.7,20.5,32.4,53,22.8,81.8c-0.9,2.5-3,4.9-2.1,7.7
		c9.3,28.4,17.3,57.7,24,88c5.9,26.4,9.3,51.5,10.3,75.4c1.6,36.7-5.4,71.4-28.7,99.9c-3.4,4.2-6.5,8.1-9,12.9
		c-21.1,40-42,79.4-62.7,118c-1.6,2.9-3.2,6.3-4.9,10c-0.2,0.3,0,0.7,0.3,0.9c0.1,0.1,0.3,0.1,0.4,0c15.6-2.9,31.6-5.4,48.4-6.1
		c39.3-1.6,79.7,1.4,117.5,13.6c7.8,2.5,15.2,5.5,22.3,8.9c2.4,1.2,2.3,1.4-0.3,0.8c-35.2-8.6-70.9-11.5-106.9-8.8
		c-0.2,0-0.3,0.1-0.3,0.3v0c0,0.2,0.1,0.3,0.3,0.3c34.5,2,69.6,4.4,101.7,17.9c3.2,1.3,3,1.7-0.3,1.2c-10.2-1.7-20.8-3.1-31.7-4.2
		c-9.7-1-28.6-1.8-56.9-2.4C867.1,679.2,867,679.4,867.8,679.7z M805.6,205.2c0-5.5-4.5-10-10-10c0,0,0,0,0,0c-5.5,0-10,4.5-10,10v0
		c0,5.5,4.5,10,10,10l0,0C801.1,215.2,805.6,210.7,805.6,205.2L805.6,205.2z M685.8,299.9c1.6,1.3,6.1-1.5,10-6.3
		c3.9-4.8,5.8-9.7,4.2-11.1c-1.6-1.3-6.1,1.5-10,6.3C686,293.6,684.2,298.5,685.8,299.9z M679.8,299.6c1.5-1.4-0.6-6.2-4.7-10.8
		c-4.2-4.5-8.8-7-10.3-5.6c0,0,0,0,0,0c-1.5,1.4,0.6,6.2,4.7,10.8C673.7,298.5,678.3,301,679.8,299.6
		C679.8,299.6,679.8,299.6,679.8,299.6z M540.5,365.9c5,6.2,10.5,12.2,15,18.9c1.8,2.8,2.5,2.6,1.9-0.8c-1.1-6.8-2-14.4-2.5-23
		c0-0.6-0.5-1-1-1.1c-3.7-0.5-10.5-0.4-13.3,2.8C539.7,363.6,539.7,364.9,540.5,365.9z M543.2,393.9c-5.4-7.4-9.3-15.2-13.1-23.5
		c-0.7-1.6-1.8-1.9-3.3-1.1l-5.4,2.9c-1.4,0.8-2,2.4-1.5,3.9c2.6,7.4,11.8,13,18.5,16.9c1.4,0.8,2.8,1.4,4.2,1.7
		C543.6,395,543.8,394.7,543.2,393.9z M571.9,415.5c0.8,1.1,1.1,0.9,0.8-0.4c-1.8-7.8-5.8-20.8-13.3-24.4c-2-0.9-3.8-0.6-5.3,0.9
		l-2.1,2.1c-1.3,1.3-1.2,2.5,0.2,3.6c2.4,1.9,4.8,3.6,7.2,5.2C564.4,406.1,568.1,410.6,571.9,415.5z M482,581.2
		c5-0.9,9.6-2.9,13.8-5.9c17.7-12.8,23.6-35.4,14.7-55.2c-6.9-15.4-22.4-25.7-39.5-26c-14.2-0.2-29.4-0.3-45.6-0.3
		c-1.3,0-2.6,0.1-4,0.4c-0.5,0.1-0.8,0.4-1,0.9c-0.4,1.4-0.5,2.7-0.5,4c0,50.3,0,97.8,0,142.5c0,10.9,6,17.6,17.5,17.4
		c1.1,0,1.6-0.6,1.6-1.7l0-74.2c0-0.5,0.4-0.9,0.9-0.9c5.4,0,11,0,16.9,0.1c4.5,0.1,9.2,8.3,11.5,12.1
		c11.3,18.4,18.9,37.3,27.4,57.8c4.1,10,10.4,10.2,20,9.2c0.5-0.1,0.8-0.5,0.8-1c0,0,0,0,0-0.1c-1-4.8-2.4-9.6-4.1-14.4
		c-8-22.5-18.3-43.8-31-63.9c-0.2-0.3-0.1-0.7,0.2-0.9C481.8,581.2,481.9,581.2,482,581.2z M536.8,624.4
		c8.2,24.5,31.3,40.2,57.3,37.5c23.4-2.4,41.9-20.4,47.1-43.1c0.3-1.3,0.5-2.6,0.5-3.8c0.9-19.7,0.6-39.9,0.5-60.1
		c0-16.1-5-29.2-14.9-39.4c-15.9-16.2-38.9-22-59.3-13.1c-18.9,8.3-33.8,27-33.7,48.6c0.1,16.2,0,33.3-0.1,51.4
		C534.1,611.7,535,619,536.8,624.4z M678.6,511c-13.5,11.3-20.1,25.9-19.7,44c0.3,15.4,0.3,32.3,0.2,50.6
		c-0.1,16.1,5.4,29.5,16.7,40.4c20.2,19.5,51.7,20.7,72.7,1.6c12.4-11.2,18.5-25.6,18.2-43c-0.2-17.4-0.3-34.2-0.2-50.5
		c0.1-19.1-7.6-34.3-23-45.7C724.1,494.1,696.8,495.8,678.6,511z M766,662.2c-0.2-0.7-0.2-1.6,0-2.3c8.2-27,17-53.8,26.3-80.5
		c0.2-0.7,0.4-1.3,0.5-2c0.2-1.6-0.3-1.8-1.4-0.7c-6.3,6.2-12.2,11.2-17.7,15.1c-1.8,1.3-2.6,3.1-2.5,5.3c0.5,7.3,0.3,13.9-0.7,20
		c-3,19.5-16.6,37.7-35.3,44.6c-2.1,0.8-2.1,1.5,0,2.2c18.7,6.2,39.7,7.8,59.9,7c16.9-0.7,31.4-0.6,43.5,0.3
		c7.1,0.5,7.1,0.1,0.2-1.2c-7-1.3-14.8-2.3-21.9-2.5c-11.9-0.3-24.1-0.7-36.6-1.2C776,666.3,767.2,665.8,766,662.2z"/>
	<path d="M439,513.9c0-0.6,0.5-1,1-1h30.1c14.2,0,25.7,11.4,25.7,25.4l0,0v0.6c0,14-11.5,25.4-25.7,25.4l0,0h-30.1c-0.6,0-1-0.5-1-1
		l0,0V513.9z"/>
	<path d="M621.3,621.2c-10.8,27.3-45.9,30.4-62.1,6.6c-6-8.8-5.4-15.9-5.4-28.6c0-17.4,0-34.2,0-50.5c0-6.4,3-13.1,8.9-20.1
		c6-7.1,16-11.6,25.4-11.5c12.6,0.1,22.5,5.4,29.7,15.9c5.9,8.7,5.5,15.5,5.5,27.7c0,14.3,0,28.6,0,42.9
		C623.2,612,622.6,617.8,621.3,621.2z"/>
	<path d="M747.6,610.6c0.1,18.1-14.5,32.9-32.6,33c0,0,0,0,0,0l-3.7,0c-18.1,0.1-32.9-14.5-33-32.6l0,0l-0.3-60.5
		c-0.1-18.1,14.5-32.9,32.6-33c0,0,0,0,0,0l3.7,0c18.1-0.1,32.9,14.5,33,32.6l0,0L747.6,610.6z M689.2,616.4c-1.2,2.1-4.9,5-3.1,7.6
		c5.9,8.6,13.2,13.8,21.8,15.4c1.3,0.2,2.5-0.6,2.8-1.8c7.8-36.8,17.1-75.9,16.4-109.8c-0.1-6.5-1.1-6.6-2.9-0.4
		C715.6,557.2,704.8,588.8,689.2,616.4z"/>
	<path d="M663.4,826.5c0,0.3,0.2,0.5,0.4,0.6c0,0,0.1,0,0.1,0c4.6-0.4,9.1-0.2,13.5,0.5c2.2,0.4,4.5,0.4,6.8-0.1
		c3.8-0.7,8.1-0.9,12.8-0.4c1,0.1,1.9-0.6,2-1.6c2.7-19.4,7.7-37.1,17.7-54.1c9.8-16.6,27.5-27.5,47-20.4
		c18.3,6.6,10.6,30.3-7.1,25.2c-1.4-0.4-2.8-0.7-4.1-1c-4.1-0.8-9.6,3.3-12.1,6.1c-10.9,12.3-14.1,28.9-16.6,45.4
		c0,0.2,0.1,0.5,0.4,0.5c0,0,0.1,0,0.1,0c6.6-0.5,15.7-1.9,20.6,3.7c0.3,0.4,0.9,0.4,1.3,0.1c0.1-0.1,0.1-0.1,0.2-0.2
		c8.5-13.7,18.9-24.3,31.2-32c19.2-11.9,53.4-14.5,61.9,12.8c4.2,13.4,0.6,27.6-5.8,40.4c-14.7,29.5-46,50.1-79.7,44.9
		c-0.4-0.1-0.8,0.2-0.9,0.6c0,0.1,0,0.2,0,0.3c2.6,8.5,7.8,14,15.6,16.5c15.4,4.9,31.1-6.2,41.7-16.3c4.5-4.3,9.7-5.7,15.7-4.2
		c0.5,0.1,1-0.2,1.1-0.7c0-0.1,0-0.2,0-0.2c-0.2-11.9,1.6-23.3,6-34.4c11.7-30.1,35.6-65.7,71.6-68.1c27.7-1.8,41.9,20.4,35.1,45.7
		c-10.1,37.8-44.6,65.9-85.2,61c-1.2-0.1-1.6,0.4-1.2,1.5c3.1,8.4,8.6,13.8,16.5,16c15.1,4.3,30.4-7,40.9-16.4
		c4.3-3.9,9.4-6.2,15.2-4.5c6.2,1.8,9.5,8.8,7.2,14.5c-1.1,2.8-3,5.5-5.7,8c-18,16.9-38.2,29.1-63.9,25.5
		c-17-2.4-26.2-14.3-33.2-28.8c-0.1-0.1-0.2-0.2-0.4-0.1c0,0-0.1,0-0.1,0.1c-8.8,9.9-19,17.6-30.6,23.2c-9.6,4.6-19.9,6.7-31,6.3
		c-12.9-0.5-23.3-6.2-31.1-17.2c-15.3-21.4-11.9-48.3-2-72.6c0.1-0.2,0-0.4-0.2-0.5c0,0-0.1,0-0.1,0l-14-0.2c-0.3,0-0.5,0.1-0.5,0.4
		c-5.4,36.4-10.8,73.3-16.3,110.7c-0.5,3.5-1.4,6.3-2.5,8.3c-6.5,10.9-24.3,6.2-22.1-7.8c5.5-35.6,10.8-72.6,16-111
		c0-0.3-0.2-0.7-0.6-0.7c0,0-0.1,0-0.1,0c-4.8,0.4-9.6,0-14.4-1.2c-0.6-0.1-1.1-0.1-1.7,0.1c-5.2,1.9-12,1.2-17.5,1.1
		c-0.6,0-1,0.3-1.1,0.9c-5.4,38.9-10.6,76-15.6,111.3c-1.1,7.5-4.6,13.2-12.8,13.4c-9.4,0.3-13.2-7.2-11.7-15.6
		c0.3-1.8,0.5-2.7,0.5-2.8c5.1-34.8,10.2-70.1,15.2-106c0.1-0.5-0.3-1-0.9-1.1c-0.1,0-0.1,0-0.2,0c-1.9,0.2-3.9,0.2-6,0.2
		c-13.9-0.2-16.5-18.9-4.4-24.3c3.9-1.7,9.1-0.7,13.4-0.9c0.5,0,0.9-0.4,0.9-0.8c0.8-6.7,2-12.9,3.4-18.9
		c6-25.5,19.3-58.1,48.9-58.3c6.5,0,12.3,1.8,17.4,5.4c8.7,6.3,6.5,18.2-3,22.3c-6.2,2.7-10.9-2.9-17-1.1
		C671.7,780.3,665.2,812.2,663.4,826.5z M883.7,826.6c-13.9,12.8-23.6,28.4-28.9,47c-0.1,0.5,0.1,1,0.6,1.1c0.1,0,0.2,0,0.2,0
		c6.8,0.2,13.8-0.6,21-2.3c19.7-4.8,33.6-20.8,38.6-39.7c1.8-6.8,1.7-14.1-6.1-17C901.5,812.8,889,821.7,883.7,826.6z M757.1,865.5
		c-1.1,2.7-1.9,5.5-2.5,8.4c-0.1,0.4,0.2,0.9,0.6,1c0.1,0,0.1,0,0.2,0c6.3,0,12.3-0.6,18.3-1.8c19.8-4.1,33.6-18.1,40.3-36.7
		c2.7-7.5,3.7-17.5-5.7-20.6c-3.1-1-7,0-10,1.2C778.8,824.9,764.7,846.1,757.1,865.5z"/>
	<path d="M484.4,914.5c-0.2-0.4-0.6-0.5-0.9-0.4c-0.1,0-0.2,0.1-0.3,0.2c-29.3,36.8-91.5,36.3-98.8-19.9c-0.8-6.4-0.9-12.6-0.2-18.6
		c3.4-29.1,14.2-54.1,32.3-74.8c16.7-19.1,38.5-31.2,64.1-31.5c7.1-0.1,16,1.6,19.5,8.6c1.8,3.7,1.9,7.3,0.1,11.1
		c-2.2,4.7-6.6,6.8-13,6.5c-11.6-0.7-22.1,1.7-31.5,7.1c-26.9,15.4-49.7,54.2-45.7,85.6c1.6,12.6,10.9,24.1,24.2,24.2
		c11.8,0.1,21.6-6.9,28.3-16.1c4.7-6.5,10.2-15.7,16.7-27.8c3.6-6.8,6.3-12.7,8-17.8c10.8-32.2,39.6-67,78.3-59.6
		c8.2,1.6,15.1,5.2,20.7,10.8c0.7,0.7,1.4,0.8,2.3,0.2c5.6-3.5,15.3-9.9,22-7.6c3.3,1.2,5.6,3.3,7,6.5c5,11.3-8.4,18.4-17.1,22.1
		c-0.5,0.2-0.8,0.8-0.7,1.3c5.6,28.6,0.4,55.8-15.4,81.5c-10.4,16.9-28.2,31.6-48.2,35.1C510.9,945.5,493.7,936.6,484.4,914.5z
		 M576.7,840.4c0-0.3-0.1-0.5-0.3-0.6c-0.4-0.3-0.8-0.3-1.2-0.1c-3.6,2-7.1,4.2-10.5,6.5c-6,4.2-14.3,4.7-18-2.8
		c-6.4-12.9,7.5-19.7,16.5-23.8c0.5-0.2,0.7-0.9,0.5-1.4c-0.1-0.2-0.2-0.3-0.3-0.4c-6.6-4.7-17.6-0.9-24,3.3
		c-18,12-30.2,33-34.3,54.1c-2.2,11-1.6,24.1,5.9,32.8c9.2,10.6,23.6,8.9,34.7,1.6C567.2,895.4,576.7,865.8,576.7,840.4z"/>
	<path d="M190.2,839.8h131.3c2.8,0,5.1,2.3,5.1,5.1v0.1c0,2.8-2.3,5.1-5.1,5.1H190.2c-2.8,0-5.1-2.3-5.1-5.1v-0.1
		C185.2,842.1,187.4,839.8,190.2,839.8z"/>
	<path d="M190,858.6l131.3,0.2c2.8,0,5,2.3,5,5l0,0.2c0,2.8-2.3,5-5,5L190,868.8c-2.8,0-5-2.3-5-5l0-0.2
		C185,860.9,187.2,858.6,190,858.6z"/>
</g>
</svg>
